<svg xmlns="http://www.w3.org/2000/svg" viewBox="0 0 32 32"><rect width="32" height="32" rx="7" fill="#0d1117"/><rect x="1.98" y="9.62" width="2.55" height="2.55" fill="#5EEAD4"/><rect x="4.53" y="9.62" width="2.55" height="2.55" fill="#5EEAD4"/><rect x="7.08" y="9.62" width="2.55" height="2.55" fill="#5EEAD4"/><rect x="9.62" y="9.62" width="2.55" height="2.55" fill="#5EEAD4"/><rect x="12.18" y="9.62" width="2.55" height="2.55" fill="#5EEAD4"/><rect x="7.08" y="12.18" width="2.55" height="2.55" fill="#5EEAD4"/><rect x="7.08" y="14.72" width="2.55" height="2.55" fill="#5EEAD4"/><rect x="7.08" y="17.27" width="2.55" height="2.55" fill="#5EEAD4"/><rect x="7.08" y="19.82" width="2.55" height="2.55" fill="#5EEAD4"/><rect x="17.27" y="9.62" width="2.55" height="2.55" fill="#C084FC"/><rect x="27.47" y="9.62" width="2.55" height="2.55" fill="#C084FC"/><rect x="17.27" y="12.18" width="2.55" height="2.55" fill="#C084FC"/><rect x="19.82" y="12.18" width="2.55" height="2.55" fill="#C084FC"/><rect x="24.92" y="12.18" width="2.55" height="2.55" fill="#C084FC"/><rect x="27.47" y="12.18" width="2.55" height="2.55" fill="#C084FC"/><rect x="17.27" y="14.72" width="2.55" height="2.55" fill="#C084FC"/><rect x="22.38" y="14.72" width="2.55" height="2.55" fill="#C084FC"/><rect x="27.47" y="14.72" width="2.55" height="2.55" fill="#C084FC"/><rect x="17.27" y="17.27" width="2.55" height="2.55" fill="#C084FC"/><rect x="27.47" y="17.27" width="2.55" height="2.55" fill="#C084FC"/><rect x="17.27" y="19.82" width="2.55" height="2.55" fill="#C084FC"/><rect x="27.47" y="19.82" width="2.55" height="2.55" fill="#C084FC"/></svg>